<svg width="135" height="25" viewBox="0 0 135 25" fill="none" xmlns="http://www.w3.org/2000/svg">
<g clip-path="url(#clip0_2330_8051)">
<path d="M62.6698 19.5411C60.472 19.5411 58.6567 18.8109 57.2239 17.3503C55.7912 15.8897 55.0748 14.0883 55.0748 11.9461C55.0748 9.79006 55.7912 7.98868 57.2239 6.54201C58.6567 5.08144 60.472 4.35115 62.6698 4.35115C63.9913 4.35115 65.2084 4.66413 66.3212 5.29009C67.448 5.90214 68.3243 6.73676 68.9503 7.79393L66.4673 9.23365C66.1056 8.57986 65.5909 8.07214 64.9232 7.71047C64.2556 7.3349 63.5044 7.14711 62.6698 7.14711C61.2509 7.14711 60.1033 7.59224 59.227 8.48249C58.3646 9.37275 57.9333 10.5273 57.9333 11.9461C57.9333 13.3511 58.3646 14.4987 59.227 15.3889C60.1033 16.2792 61.2509 16.7243 62.6698 16.7243C63.5044 16.7243 64.2556 16.5435 64.9232 16.1818C65.6048 15.8062 66.1195 15.2985 66.4673 14.6586L68.9503 16.0984C68.3243 17.1555 67.4549 17.9971 66.3421 18.6231C65.2293 19.2351 64.0052 19.5411 62.6698 19.5411ZM79.5437 17.9554C78.4726 19.0125 77.165 19.5411 75.621 19.5411C74.0769 19.5411 72.7694 19.0125 71.6983 17.9554C70.6411 16.8843 70.1125 15.5767 70.1125 14.0327C70.1125 12.4886 70.6411 11.188 71.6983 10.1309C72.7694 9.05977 74.0769 8.52422 75.621 8.52422C77.165 8.52422 78.4726 9.05977 79.5437 10.1309C80.6148 11.188 81.1503 12.4886 81.1503 14.0327C81.1503 15.5767 80.6148 16.8843 79.5437 17.9554ZM73.597 16.0984C74.1395 16.6409 74.8142 16.9121 75.621 16.9121C76.4278 16.9121 77.1024 16.6409 77.6449 16.0984C78.1874 15.5559 78.4587 14.8673 78.4587 14.0327C78.4587 13.1981 78.1874 12.5095 77.6449 11.967C77.1024 11.4245 76.4278 11.1533 75.621 11.1533C74.8142 11.1533 74.1395 11.4245 73.597 11.967C73.0685 12.5095 72.8042 13.1981 72.8042 14.0327C72.8042 14.8673 73.0685 15.5559 73.597 16.0984ZM89.1157 8.52422C90.5206 8.52422 91.7169 9.05977 92.7045 10.1309C93.706 11.188 94.2068 12.4886 94.2068 14.0327C94.2068 15.5767 93.706 16.8843 92.7045 17.9554C91.7169 19.0125 90.5206 19.5411 89.1157 19.5411C87.6551 19.5411 86.5284 19.0334 85.7355 18.018V23.4221H83.0438V8.81634H85.7355V10.0474C86.5284 9.03195 87.6551 8.52422 89.1157 8.52422ZM86.5492 16.1609C87.0917 16.7034 87.7803 16.9747 88.6149 16.9747C89.4495 16.9747 90.1381 16.7034 90.6806 16.1609C91.237 15.6045 91.5152 14.8951 91.5152 14.0327C91.5152 13.1702 91.237 12.4678 90.6806 11.9253C90.1381 11.3689 89.4495 11.0907 88.6149 11.0907C87.7803 11.0907 87.0917 11.3689 86.5492 11.9253C86.0067 12.4678 85.7355 13.1702 85.7355 14.0327C85.7355 14.8951 86.0067 15.6045 86.5492 16.1609ZM104.034 8.81634H106.726V19.249H104.034V18.018C103.227 19.0334 102.093 19.5411 100.633 19.5411C99.2418 19.5411 98.0455 19.0125 97.044 17.9554C96.0564 16.8843 95.5626 15.5767 95.5626 14.0327C95.5626 12.4886 96.0564 11.188 97.044 10.1309C98.0455 9.05977 99.2418 8.52422 100.633 8.52422C102.093 8.52422 103.227 9.03195 104.034 10.0474V8.81634ZM99.068 16.1609C99.6105 16.7034 100.299 16.9747 101.134 16.9747C101.968 16.9747 102.657 16.7034 103.199 16.1609C103.756 15.6045 104.034 14.8951 104.034 14.0327C104.034 13.1702 103.756 12.4678 103.199 11.9253C102.657 11.3689 101.968 11.0907 101.134 11.0907C100.299 11.0907 99.6105 11.3689 99.068 11.9253C98.5255 12.4678 98.2542 13.1702 98.2542 14.0327C98.2542 14.8951 98.5255 15.6045 99.068 16.1609ZM109.166 19.249V4.0173H111.858V19.249H109.166ZM115.991 19.1864C115.81 19.3673 115.587 19.4577 115.323 19.4577C115.059 19.4577 114.836 19.3673 114.655 19.1864C114.475 19.0056 114.384 18.783 114.384 18.5187C114.384 18.2544 114.475 18.0319 114.655 17.851C114.836 17.6702 115.059 17.5798 115.323 17.5798C115.587 17.5798 115.81 17.6702 115.991 17.851C116.172 18.0319 116.262 18.2544 116.262 18.5187C116.262 18.783 116.172 19.0056 115.991 19.1864ZM127.484 8.81634H128.549V19.249H127.484V16.8912C127.039 17.698 126.427 18.3309 125.648 18.79C124.869 19.249 123.986 19.4785 122.998 19.4785C121.51 19.4785 120.237 18.9569 119.18 17.9136C118.123 16.8565 117.594 15.5628 117.594 14.0327C117.594 12.5026 118.123 11.2159 119.18 10.1726C120.237 9.11541 121.51 8.58682 122.998 8.58682C123.986 8.58682 124.869 8.81634 125.648 9.27538C126.427 9.73441 127.039 10.3673 127.484 11.1741V8.81634ZM119.931 17.1834C120.794 18.0458 121.844 18.477 123.082 18.477C124.32 18.477 125.363 18.0458 126.212 17.1834C127.06 16.3209 127.484 15.2707 127.484 14.0327C127.484 12.7947 127.06 11.7444 126.212 10.882C125.363 10.0196 124.32 9.58836 123.082 9.58836C121.844 9.58836 120.794 10.0196 119.931 10.882C119.083 11.7444 118.658 12.7947 118.658 14.0327C118.658 15.2707 119.083 16.3209 119.931 17.1834ZM132.858 6.06211C132.691 6.21512 132.496 6.29163 132.274 6.29163C132.051 6.29163 131.856 6.21512 131.689 6.06211C131.523 5.89519 131.439 5.69349 131.439 5.45701C131.439 5.23445 131.523 5.04666 131.689 4.89365C131.856 4.72673 132.051 4.64326 132.274 4.64326C132.496 4.64326 132.691 4.72673 132.858 4.89365C133.025 5.04666 133.108 5.23445 133.108 5.45701C133.108 5.69349 133.025 5.89519 132.858 6.06211ZM131.752 19.249V8.81634H132.795V19.249H131.752Z" fill="white"/>
<g clip-path="url(#clip1_2330_8051)">
<path d="M21.8109 4.46997L19.5293 8.61375C18.2099 6.01118 15.4813 4.22531 12.3333 4.22531C7.88867 4.22531 4.28767 7.77577 4.28767 12.1607C4.28767 16.5444 7.88747 20.096 12.3333 20.096C12.6365 20.096 12.9385 20.0783 13.232 20.0475L10.9504 24.1866C4.82572 23.5082 0.0599365 18.3846 0.0599365 12.1607C0.0599365 5.47696 5.5579 0.059082 12.3333 0.059082C16.1512 0.059082 19.5569 1.77994 21.8109 4.46997Z" fill="#1D6ED2"/>
<path d="M46.3865 13.5376C45.6951 19.5701 40.5051 24.2622 34.1982 24.2622C29.9609 24.2622 26.2257 22.1454 24.0256 18.9236L26.4917 14.4418C27.4816 17.7121 30.5577 20.096 34.1982 20.096C38.1647 20.096 41.4626 17.2665 42.1216 13.5376H46.3865Z" fill="url(#paint0_linear_2330_8051)"/>
<path d="M46.4679 12.1607C46.4679 12.624 46.4404 13.0826 46.3864 13.5376H42.1216C42.203 13.092 42.2438 12.6334 42.2438 12.1607C42.2438 7.77696 38.6392 4.22532 34.1982 4.22532C33.4168 4.22532 32.6583 4.33642 31.9441 4.54207C30.1502 5.05383 28.6151 6.17192 27.5797 7.65167L26.7577 9.14443L24.5587 13.1322V13.1369L22.7289 16.4605L19.8145 21.753H19.8109V21.753C18.9579 23.3009 17.3304 24.2622 15.563 24.2622H13.5628L13.5988 24.1996L16.4855 18.9555L20.3753 11.8983L23.2621 6.65769C23.2657 6.66241 23.2657 6.66241 23.2657 6.66714C23.3113 6.57377 23.3616 6.48395 23.4107 6.39057C25.0908 3.33888 28.0639 1.08025 31.6097 0.330921C32.4414 0.153635 33.3078 0.059082 34.1982 0.059082C34.2701 0.059082 34.3384 0.059082 34.4103 0.0638097C41.0874 0.174909 46.4679 5.54905 46.4679 12.1607Z" fill="white"/>
</g>
</g>
<defs>
<linearGradient id="paint0_linear_2330_8051" x1="46.3494" y1="17.4157" x2="24.993" y2="18.8765" gradientUnits="userSpaceOnUse">
<stop offset="0.221005" stop-color="white"/>
<stop offset="0.752265" stop-color="#2183DF"/>
</linearGradient>
<clipPath id="clip0_2330_8051">
<rect width="135" height="24.2963" fill="white"/>
</clipPath>
<clipPath id="clip1_2330_8051">
<rect width="46.5278" height="24.3213" fill="white"/>
</clipPath>
</defs>
</svg>
