<svg width="951" height="951" viewBox="0 0 951 951" fill="none" xmlns="http://www.w3.org/2000/svg">
<g clip-path="url(#clip0_2547_10755)">
<rect width="951" height="951" fill="white"/>
<rect y="7" width="951" height="951" fill="white"/>
<path d="M471.105 340.752L434.481 407.267C413.302 365.491 369.503 336.825 318.972 336.825C247.627 336.825 189.824 393.816 189.824 464.202C189.824 534.568 247.608 591.579 318.972 591.579C323.838 591.579 328.685 591.294 333.398 590.801L296.774 657.24C198.461 646.35 121.961 564.107 121.961 464.202C121.961 356.916 210.214 269.949 318.972 269.949C380.256 269.949 434.923 297.572 471.105 340.752Z" fill="#1D6ED2"/>
<path d="M865.588 486.302C854.489 583.134 771.18 658.452 669.944 658.452C601.927 658.452 541.97 624.473 506.654 572.756L546.24 500.815C562.129 553.31 611.506 591.576 669.944 591.576C733.613 591.576 786.549 546.158 797.129 486.302H865.588Z" fill="url(#paint0_linear_2547_10755)"/>
<path d="M866.896 464.202C866.896 471.639 866.453 479 865.588 486.304H797.129C798.437 479.152 799.091 471.79 799.091 464.202C799.091 393.835 741.23 336.825 669.943 336.825C657.402 336.825 645.226 338.608 633.761 341.909C604.966 350.124 580.325 368.071 563.706 391.824L550.51 415.786L515.213 479.797V479.872L485.84 533.221L439.059 618.177H439.002L416.804 658.454H338.708L339.285 657.449L385.623 573.271L448.062 459.99L494.4 375.869C494.458 375.945 494.458 375.945 494.458 376.021C495.189 374.522 495.997 373.08 496.785 371.581C523.753 322.596 571.477 286.341 628.395 274.312C641.744 271.467 655.651 269.949 669.943 269.949C671.098 269.949 672.194 269.949 673.348 270.025C780.528 271.808 866.896 358.073 866.896 464.202Z" fill="#212121"/>
</g>
<defs>
<linearGradient id="paint0_linear_2547_10755" x1="865.182" y1="523" x2="522.182" y2="572" gradientUnits="userSpaceOnUse">
<stop offset="0.236631" stop-color="#212121"/>
<stop offset="1" stop-color="#2183DF"/>
</linearGradient>
<clipPath id="clip0_2547_10755">
<rect width="951" height="951" fill="white"/>
</clipPath>
</defs>
</svg>
