<svg width="94" height="35" viewBox="0 0 94 35" fill="none" xmlns="http://www.w3.org/2000/svg">
<g clip-path="url(#clip0_1777_1697)">
<path d="M2.81438 22.899V11.505H6.27814L6.39207 13.7155C6.75668 12.9103 7.26561 12.3026 7.91886 11.8924C8.58731 11.4823 9.3545 11.2772 10.2204 11.2772C11.0712 11.2772 11.808 11.4671 12.4309 11.8469C13.0537 12.2267 13.5171 12.7888 13.8209 13.5332C14.064 13.0318 14.3754 12.6141 14.7552 12.2798C15.1502 11.9456 15.5984 11.6949 16.0997 11.5278C16.601 11.3607 17.1176 11.2772 17.6493 11.2772C18.4089 11.2772 19.0773 11.4291 19.6546 11.7329C20.2319 12.0216 20.6877 12.4697 21.0219 13.0774C21.3713 13.6699 21.546 14.4143 21.546 15.3106V22.899H17.6721V16.1994C17.6721 15.4701 17.5278 14.9612 17.2391 14.6726C16.9657 14.3839 16.5934 14.2396 16.1225 14.2396C15.7427 14.2396 15.3933 14.3383 15.0743 14.5358C14.7704 14.7181 14.5349 14.9992 14.3678 15.379C14.2007 15.7588 14.1172 16.2373 14.1172 16.8146V22.899H10.2432V16.1994C10.2432 15.4701 10.0989 14.9612 9.81026 14.6726C9.52161 14.3839 9.14941 14.2396 8.69365 14.2396C8.34424 14.2396 8.01001 14.3307 7.69098 14.513C7.38715 14.6953 7.14407 14.984 6.96177 15.379C6.77947 15.7588 6.68832 16.2601 6.68832 16.883V22.899H2.81438ZM29.6905 11.2772C30.8907 11.2772 31.9389 11.5126 32.8353 11.9836C33.7468 12.4393 34.4532 13.1154 34.9545 14.0117C35.4711 14.8928 35.7293 15.9563 35.7293 17.202C35.7293 18.4478 35.4711 19.5188 34.9545 20.4151C34.4532 21.2962 33.7468 21.9723 32.8353 22.4432C31.9389 22.899 30.8907 23.1269 29.6905 23.1269C28.5208 23.1269 27.4801 22.899 26.5686 22.4432C25.6571 21.9723 24.9431 21.2962 24.4265 20.4151C23.9252 19.5188 23.6745 18.4478 23.6745 17.202C23.6745 15.9563 23.9252 14.8928 24.4265 14.0117C24.9431 13.1154 25.6571 12.4393 26.5686 11.9836C27.4801 11.5126 28.5208 11.2772 29.6905 11.2772ZM29.6905 14.0345C29.25 14.0345 28.8702 14.1408 28.5512 14.3535C28.2321 14.5662 27.989 14.908 27.8219 15.379C27.6548 15.8499 27.5713 16.4576 27.5713 17.202C27.5713 17.9464 27.6548 18.5541 27.8219 19.025C27.989 19.4808 28.2321 19.8226 28.5512 20.0505C28.8702 20.2632 29.25 20.3695 29.6905 20.3695C30.1463 20.3695 30.5337 20.2632 30.8527 20.0505C31.1718 19.8226 31.4148 19.4808 31.5819 19.025C31.749 18.5541 31.8326 17.9464 31.8326 17.202C31.8326 16.4576 31.749 15.8499 31.5819 15.379C31.4148 14.908 31.1718 14.5662 30.8527 14.3535C30.5337 14.1408 30.1463 14.0345 29.6905 14.0345ZM43.3321 11.2772C44.5323 11.2772 45.5805 11.5126 46.4768 11.9836C47.3884 12.4393 48.0948 13.1154 48.5961 14.0117C49.1126 14.8928 49.3709 15.9563 49.3709 17.202C49.3709 18.4478 49.1126 19.5188 48.5961 20.4151C48.0948 21.2962 47.3884 21.9723 46.4768 22.4432C45.5805 22.899 44.5323 23.1269 43.3321 23.1269C42.1623 23.1269 41.1217 22.899 40.2102 22.4432C39.2987 21.9723 38.5846 21.2962 38.0681 20.4151C37.5668 19.5188 37.3161 18.4478 37.3161 17.202C37.3161 15.9563 37.5668 14.8928 38.0681 14.0117C38.5846 13.1154 39.2987 12.4393 40.2102 11.9836C41.1217 11.5126 42.1623 11.2772 43.3321 11.2772ZM43.3321 14.0345C42.8916 14.0345 42.5118 14.1408 42.1927 14.3535C41.8737 14.5662 41.6306 14.908 41.4635 15.379C41.2964 15.8499 41.2128 16.4576 41.2128 17.202C41.2128 17.9464 41.2964 18.5541 41.4635 19.025C41.6306 19.4808 41.8737 19.8226 42.1927 20.0505C42.5118 20.2632 42.8916 20.3695 43.3321 20.3695C43.7879 20.3695 44.1753 20.2632 44.4943 20.0505C44.8133 19.8226 45.0564 19.4808 45.2235 19.025C45.3906 18.5541 45.4742 17.9464 45.4742 17.202C45.4742 16.4576 45.3906 15.8499 45.2235 15.379C45.0564 14.908 44.8133 14.5662 44.4943 14.3535C44.1753 14.1408 43.7879 14.0345 43.3321 14.0345ZM64.0607 11.505L58.5916 17.3387L57.8624 17.5438L54.6038 21.1899L54.581 17.2248L59.7538 11.505H64.0607ZM55.4241 6.67402V22.899H51.5502V6.67402H55.4241ZM59.1841 14.9232L64.3114 22.899H60.0273L56.6547 17.202L59.1841 14.9232ZM67.9293 18.9795C68.6433 18.9795 69.1978 19.1618 69.5928 19.5264C70.003 19.891 70.2081 20.3999 70.2081 21.0532C70.2081 21.6912 70.003 22.1926 69.5928 22.5572C69.1978 22.9218 68.6433 23.1041 67.9293 23.1041C67.2305 23.1041 66.676 22.9218 66.2658 22.5572C65.8556 22.1926 65.6505 21.6912 65.6505 21.0532C65.6505 20.3999 65.8556 19.891 66.2658 19.5264C66.676 19.1618 67.2305 18.9795 67.9293 18.9795ZM78.9823 15.6752C78.9823 15.1435 78.8304 14.7257 78.5266 14.4219C78.2379 14.1029 77.8429 13.9433 77.3416 13.9433C76.8403 13.9433 76.4073 14.0725 76.0427 14.3307C75.6933 14.5738 75.4502 15.0144 75.3135 15.6524L72.032 14.8777C72.2447 13.7838 72.8068 12.9103 73.7183 12.257C74.6298 11.6038 75.9136 11.2772 77.5695 11.2772C78.6785 11.2772 79.6204 11.4443 80.3952 11.7785C81.1852 12.0975 81.7852 12.5837 82.1954 13.2369C82.6208 13.875 82.8335 14.665 82.8335 15.6069V19.777C82.8335 20.3695 83.0993 20.6658 83.6311 20.6658C83.9045 20.6658 84.1248 20.6354 84.2919 20.5746L84.064 22.785C83.6083 22.9977 83.0538 23.1041 82.4005 23.1041C81.808 23.1041 81.2839 23.0129 80.8281 22.8306C80.3724 22.6331 80.0154 22.3445 79.7571 21.9647C79.4989 21.5697 79.3697 21.076 79.3697 20.4835V20.3467L79.8027 20.1872C79.8027 20.8405 79.6052 21.3874 79.2102 21.828C78.8304 22.2685 78.3291 22.5951 77.7062 22.8078C77.0985 23.0205 76.4605 23.1269 75.792 23.1269C75.0172 23.1269 74.3412 23.0053 73.7639 22.7623C73.1866 22.5192 72.7385 22.1698 72.4194 21.714C72.1156 21.2431 71.9637 20.6658 71.9637 19.9821C71.9637 19.1618 72.2067 18.4857 72.6929 17.954C73.1942 17.4071 73.9766 17.0273 75.04 16.8146L79.3469 15.9259L79.3241 17.9768L77.1365 18.4326C76.6808 18.5237 76.3389 18.6604 76.1111 18.8427C75.8984 19.0099 75.792 19.2681 75.792 19.6175C75.792 19.9518 75.9136 20.2024 76.1566 20.3695C76.3997 20.5366 76.6884 20.6202 77.0226 20.6202C77.2808 20.6202 77.5239 20.5822 77.7518 20.5063C77.9949 20.4303 78.2075 20.3164 78.3898 20.1644C78.5721 19.9973 78.7165 19.7922 78.8228 19.5492C78.9292 19.3061 78.9823 19.0175 78.9823 18.6832V15.6752ZM87.758 10.1833C86.968 10.1833 86.3907 10.039 86.0261 9.75038C85.6767 9.44654 85.502 8.97559 85.502 8.33753C85.502 7.68428 85.6767 7.21333 86.0261 6.92468C86.3907 6.62084 86.968 6.46893 87.758 6.46893C88.5328 6.46893 89.1025 6.62084 89.4671 6.92468C89.8317 7.21333 90.014 7.68428 90.014 8.33753C90.014 8.97559 89.8317 9.44654 89.4671 9.75038C89.1025 10.039 88.5328 10.1833 87.758 10.1833ZM89.6949 11.505V22.899H85.821V11.505H89.6949Z" fill="black"/>
<path d="M39.2244 24.4115C39.2244 25.7754 38.0819 26.881 36.6726 26.881C35.2632 26.881 34.1207 25.7754 34.1207 24.4115" stroke="black" stroke-width="1.64635" stroke-linecap="round"/>
<circle cx="43.5065" cy="17.3954" r="1.72867" fill="black"/>
<circle cx="29.7388" cy="17.3954" r="1.72867" fill="black"/>
</g>
<defs>
<clipPath id="clip0_1777_1697">
<rect width="94" height="34.1818" fill="white"/>
</clipPath>
</defs>
</svg>
