<svg width="16" height="16" viewBox="0 0 16 16" fill="none" xmlns="http://www.w3.org/2000/svg">
<path fill-rule="evenodd" clip-rule="evenodd" d="M8 10C9.10457 10 10 9.10457 10 8C10 6.89543 9.10457 6 8 6C6.89543 6 6 6.89543 6 8C6 9.10457 6.89543 10 8 10Z" stroke="#212121" stroke-opacity="0.52" stroke-linecap="round" stroke-linejoin="round"/>
<path fill-rule="evenodd" clip-rule="evenodd" d="M12.9333 10C12.7517 10.4114 12.8388 10.8919 13.1533 11.2134L13.1933 11.2534C13.4437 11.5034 13.5843 11.8428 13.5843 12.1967C13.5843 12.5506 13.4437 12.8899 13.1933 13.14C12.9432 13.3904 12.6038 13.5311 12.25 13.5311C11.8961 13.5311 11.5567 13.3904 11.3066 13.14L11.2666 13.1C10.9452 12.7856 10.4647 12.6985 10.0533 12.88C9.65031 13.0527 9.38837 13.4483 9.38663 13.8867V14C9.38663 14.7364 8.78967 15.3334 8.05329 15.3334C7.31691 15.3334 6.71996 14.7364 6.71996 14V13.94C6.7094 13.4885 6.42387 13.0893 5.99996 12.9334C5.58857 12.7518 5.10808 12.8389 4.78663 13.1534L4.74663 13.1934C4.49653 13.4437 4.15717 13.5844 3.80329 13.5844C3.44941 13.5844 3.11005 13.4437 2.85996 13.1934C2.60959 12.9433 2.46891 12.6039 2.46891 12.25C2.46891 11.8961 2.60959 11.5568 2.85996 11.3067L2.89996 11.2667C3.2144 10.9452 3.30152 10.4647 3.11996 10.0534C2.94725 9.65037 2.55172 9.38844 2.11329 9.38669H1.99996C1.26358 9.38669 0.666626 8.78973 0.666626 8.05335C0.666626 7.31697 1.26358 6.72002 1.99996 6.72002H2.05996C2.51151 6.70946 2.91072 6.42393 3.06663 6.00002C3.24819 5.58863 3.16107 5.10814 2.84663 4.78669L2.80663 4.74669C2.55626 4.4966 2.41558 4.15723 2.41558 3.80335C2.41558 3.44947 2.55626 3.11011 2.80663 2.86002C3.05672 2.60965 3.39608 2.46897 3.74996 2.46897C4.10384 2.46897 4.4432 2.60965 4.69329 2.86002L4.73329 2.90002C5.05475 3.21446 5.53523 3.30158 5.94663 3.12002H5.99996C6.40294 2.94731 6.66488 2.55178 6.66663 2.11335V2.00002C6.66663 1.26364 7.26358 0.666687 7.99996 0.666687C8.73634 0.666687 9.33329 1.26364 9.33329 2.00002V2.06002C9.33504 2.49845 9.59698 2.89397 9.99996 3.06669C10.4114 3.24825 10.8918 3.16113 11.2133 2.84669L11.2533 2.80669C11.5034 2.55632 11.8427 2.41564 12.1966 2.41564C12.5505 2.41564 12.8899 2.55632 13.14 2.80669C13.3903 3.05678 13.531 3.39614 13.531 3.75002C13.531 4.1039 13.3903 4.44326 13.14 4.69335L13.1 4.73335C12.7855 5.05481 12.6984 5.53529 12.88 5.94669V6.00002C13.0527 6.403 13.4482 6.66494 13.8866 6.66669H14C14.7363 6.66669 15.3333 7.26364 15.3333 8.00002C15.3333 8.7364 14.7363 9.33335 14 9.33335H13.94C13.5015 9.3351 13.106 9.59704 12.9333 10Z" stroke="#212121" stroke-opacity="0.52" stroke-linecap="round" stroke-linejoin="round"/>
</svg>
