<svg width="41" height="41" viewBox="0 0 41 41" fill="none" xmlns="http://www.w3.org/2000/svg">
<path d="M27.3333 27.3333L20.5 20.5M20.5 20.5L13.6667 27.3333M20.5 20.5V35.875M34.8329 31.4162C36.4991 30.5078 37.8154 29.0705 38.5739 27.3309C39.3325 25.5914 39.4902 23.6488 39.0221 21.8097C38.554 19.9706 37.4868 18.3398 35.9889 17.1746C34.491 16.0094 32.6477 15.3762 30.75 15.375H28.5975C28.0804 13.3749 27.1166 11.5181 25.7787 9.94415C24.4407 8.37019 22.7633 7.12003 20.8726 6.28766C18.9819 5.45528 16.9271 5.06236 14.8627 5.13842C12.7983 5.21448 10.778 5.75755 8.95367 6.7268C7.12936 7.69605 5.54851 9.06625 4.32997 10.7344C3.11144 12.4026 2.28692 14.3252 1.91842 16.3579C1.54991 18.3906 1.64701 20.4804 2.2024 22.4701C2.75779 24.4599 3.75703 26.2978 5.12499 27.8458" stroke="#212121" stroke-opacity="0.52" stroke-width="1.70833" stroke-linecap="round" stroke-linejoin="round"/>
</svg>
